<?xml version="1.0" encoding="UTF-8" standalone="no"?>
<!DOCTYPE svg PUBLIC "-//W3C//DTD SVG 1.1//EN"
"http://www.w3.org/Graphics/SVG/1.1/DTD/svg11.dtd">
<svg viewBox="0 0 1565 880" version="1.1" xmlns="http://www.w3.org/2000/svg" xmlns:xlink="http://www.w3.org/1999/xlink">
<defs>
<clipPath id="c0"><path d="M0,880.4V0H1566V880.4Z"/></clipPath>
<clipPath id="c1"><path d="M725,791.7c-3.1,0,-5.5,-2.5,-5.5,-5.5V644.5c0,-3.1,2.4,-5.5,5.5,-5.5h362c3,0,5.4,2.4,5.4,5.5V786.2c0,3,-2.4,5.5,-5.4,5.5Z"/></clipPath>
<clipPath id="c2"><path d="M1071,489.1V163.5h348.5V489.1Z"/></clipPath>
<clipPath id="c3"><path d="M812.8,769.8v-3.5h-9.3v3.5Zm74.2,0v-3.5H873.5v3.5ZM0,880.4V0H1566V880.4Z"/></clipPath>
<clipPath id="c4"><path d="M253.2,793.5V778.6h14.9v14.9Z"/></clipPath>
<style type="text/css"><![CDATA[
.g0{
fill: #FFF;
}
.g1{
fill: #06002E;
}
.g2{
fill: #9D8CFF;
}
.g3{
fill: #EAF7F6;
}
]]></style>
</defs>
<path clip-path="url(#c0)" d="M0,0H1566V880.4H0V0Z" class="g0"/>
<path d="M0,0H1566V880.4H0V0Z" class="g1"/>
<path clip-path="url(#c1)" d="M719.5,639h372.9V791.9H719.5V639Z" class="g2"/>
<image clip-path="url(#c2)" preserveAspectRatio="none" x="1071" y="164" width="348" height="325" xlink:href="img/1.png"/>
<path clip-path="url(#c3)" d="M743.5,766.9h274.2v2.3H743.5v-2.3Z" class="g1"/>
<path d="M264.5,786.9c.4,-.3,.4,-.8,.1,-1.2c-.3,-.3,-.9,-.4,-1.2,-.1l-.7,.7l-1.2,1v-4.9c0,-.4,-.3,-.8,-.8,-.8c-.5,0,-.9,.4,-.9,.8v4.9l-1.1,-1l-.7,-.7c-.4,-.3,-.9,-.2,-1.3,.1c-.1,.2,-.2,.4,-.2,.6c0,.2,.1,.5,.3,.6l3.9,3.5l3.8,-3.5Z" class="g3"/>
<path clip-path="url(#c4)" d="M268.1,786.1c0,-4.1,-3.3,-7.5,-7.4,-7.5c-4.1,0,-7.5,3.4,-7.5,7.5c0,4.1,3.4,7.4,7.5,7.4c4.1,0,7.4,-3.3,7.4,-7.4Zm-13.1,0c0,-3.2,2.5,-5.7,5.7,-5.7c3.1,0,5.7,2.5,5.7,5.7c0,3.1,-2.6,5.7,-5.7,5.7c-3.2,0,-5.7,-2.6,-5.7,-5.7Z" class="g3"/>
</svg>