<?xml version="1.0" encoding="UTF-8" standalone="no"?>
<!DOCTYPE svg PUBLIC "-//W3C//DTD SVG 1.1//EN"
"http://www.w3.org/Graphics/SVG/1.1/DTD/svg11.dtd">
<svg viewBox="0 0 1565 880" version="1.1" xmlns="http://www.w3.org/2000/svg" xmlns:xlink="http://www.w3.org/1999/xlink">
<defs>
<clipPath id="c0_1"><path d="M0,891.9V0H1566V891.9Z"/></clipPath>
<clipPath id="c1_1"><path d="M0,880.4V0H1566V880.4Z"/></clipPath>
<clipPath id="c2_1"><path d="M474.2,749.3V131.4H721.8V749.3Z"/></clipPath>
<clipPath id="c3_1"><path d="M722.1,749.3V131.4h370.3V749.3Z"/></clipPath>
<clipPath id="c4_1"><path d="M1463.8,793.8V778.9h14.9v14.9Z"/></clipPath>
<style type="text/css"><![CDATA[
.g0_1{
fill: #FFF;
}
.g1_1{
fill: #06002E;
}
.g2_1{
fill: #EAF7F6;
}
]]></style>
</defs>
<path clip-path="url(#c0_1)" d="M0,0H1566V4448H0V0Z" class="g0_1"/>
<g clip-path="url(#c1_1)">
<path d="M0,0H1566V880.4H0V0Z" class="g0_1"/>
<path d="M0,0H1566V880.4H0V0Z" class="g1_1"/>
</g>
<image clip-path="url(#c2_1)" preserveAspectRatio="none" x="474" y="131" width="618" height="618" xlink:href="img/1.png"/>
<image clip-path="url(#c3_1)" preserveAspectRatio="none" x="474" y="131" width="618" height="618" xlink:href="img/2.png"/>
<path d="M1298.5,792.6h152v1.1h-152v-1.1Z" class="g2_1"/>
<path d="M1475.1,787.2c.4,-.3,.4,-.8,.1,-1.2c-.4,-.3,-.9,-.4,-1.3,0l-.7,.6l-1.1,1v-4.8c0,-.5,-.4,-.9,-.9,-.9c-.4,0,-.8,.4,-.8,.9v4.8l-1.2,-1l-.7,-.6c-.3,-.4,-.9,-.3,-1.2,0c-.1,.2,-.2,.4,-.2,.6c0,.2,.1,.5,.3,.6l3.8,3.5l3.9,-3.5Z" class="g2_1"/>
<path clip-path="url(#c4_1)" d="M1478.7,786.4c0,-4.1,-3.4,-7.5,-7.5,-7.5c-4.1,0,-7.4,3.4,-7.4,7.5c0,4.1,3.3,7.4,7.4,7.4c4.1,0,7.5,-3.3,7.5,-7.4Zm-13.2,0c0,-3.2,2.6,-5.7,5.7,-5.7c3.2,0,5.8,2.5,5.8,5.7c0,3.2,-2.6,5.7,-5.8,5.7c-3.1,0,-5.7,-2.5,-5.7,-5.7Z" class="g2_1"/>
<path d="M1326.2,94.4H1480v1.1H1326.2V94.4Z" class="g2_1"/>
</svg>